<svg id="logo" data-name="logo" xmlns="http://www.w3.org/2000/svg" viewBox="0 0 112 20">
    <defs>
        <style>.cls-1{fill:#231f20;}</style>
    </defs>
    <title>Artboard 1</title>
    <path class="cls-1"
          d="M25.21,16.31l5-12.62H29.13L24.74,14.87,20.38,3.69H19.29l5,12.62ZM34.35,3.69V16.31h7.83v-1h-6.8V10.29h6.16v-1H35.38V4.66h6.8v-1Zm16.7,7.05,3.74,5.57H56L52.2,10.7a3.27,3.27,0,0,0,3.21-3.47c0-2.3-1.5-3.54-4-3.54H47V16.31h1V10.74Zm-3-6.1H51.4c1.93,0,3,.92,3,2.59s-1.05,2.58-3,2.58H48Zm16.13-.95-5,12.62h1l1.62-4.15h5.59l1.64,4.15h1.05l-5-12.62Zm.47,1.36,2.43,6.16H62.21ZM83.68,3.69h-1V14.21L75.28,3.69h-1V16.31h1V5.36l7.7,11h.7ZM99.31,10c0-3.86-2.36-6.49-5.58-6.49S88.16,6.14,88.16,10s2.36,6.49,5.57,6.49,5.58-2.63,5.58-6.49m-1.06,0c0,3.25-1.83,5.51-4.52,5.51s-4.5-2.26-4.5-5.51,1.83-5.51,4.5-5.51S98.25,6.75,98.25,10m4.43,3.23c.5,2.09,2.35,3.26,4.67,3.26s4.17-1.29,4.17-3.51c0-1.67-.91-2.69-3-3.27l-2.12-.61c-1.54-.44-2.4-.91-2.4-2.24,0-1.54,1.33-2.41,3-2.41a3.28,3.28,0,0,1,3.39,2.22h1A4.21,4.21,0,0,0,107,3.51c-2.18,0-4,1.27-4,3.41,0,1.79,1.13,2.59,2.9,3.08l2.4.68c1.61.45,2.18,1.23,2.18,2.34,0,1.6-1.33,2.53-3.14,2.53a3.5,3.5,0,0,1-3.58-2.32Z"/>
    <polygon class="cls-1" points="7.82 10.99 9.9 5.87 8.95 5.87 7.39 9.87 5.83 5.87 4.86 5.87 6.93 10.99 7.82 10.99"/>
    <rect class="cls-1" x="4.42" y="13.62" width="5.92" height="0.65"/>
    <path class="cls-1"
          d="M7.38.79A5.91,5.91,0,0,0,1.27,6.47v7.06a5.91,5.91,0,0,0,6.11,5.68,5.91,5.91,0,0,0,6.1-5.68V6.47A5.91,5.91,0,0,0,7.38.79M7.38,20a6.7,6.7,0,0,1-6.9-6.47V6.47A6.7,6.7,0,0,1,7.38,0a6.7,6.7,0,0,1,6.89,6.47v7.06A6.7,6.7,0,0,1,7.38,20"/>
</svg>
