<?xml version="1.0" encoding="utf-8"?>
<!-- Generator: Adobe Illustrator 22.1.0, SVG Export Plug-In . SVG Version: 6.00 Build 0)  -->
<svg version="1.1" id="Layer_1" xmlns="http://www.w3.org/2000/svg"  x="0px" y="0px"
	 viewBox="0 0 112 20" style="enable-background:new 0 0 112 20;" xml:space="preserve">
<style type="text/css">
	.st0{fill:#FFFFFF;}
</style>
<title>Artboard 1</title>
<path class="st0" d="M25.2,16.3l5-12.6h-1.1l-4.4,11.2L20.4,3.7h-1.1l5,12.6H25.2z M34.3,3.7v12.6h7.8v-1h-6.8v-5h6.2v-1h-6.2V4.7
	h6.8v-1L34.3,3.7z M51,10.7l3.7,5.6H56l-3.8-5.6c1.8,0,3.2-1.5,3.2-3.3c0,0,0-0.1,0-0.1c0-2.3-1.5-3.5-4-3.5H47v12.6h1v-5.6H51z
	 M48,4.6h3.4c1.9,0,3,0.9,3,2.6s-1,2.6-3,2.6H48L48,4.6z M64.2,3.7l-5,12.6h1l1.6-4.1h5.6l1.6,4.1h1.1l-5-12.6L64.2,3.7z M64.7,5
	l2.4,6.2h-4.9L64.7,5z M83.7,3.7h-1v10.5L75.3,3.7h-1v12.6h1V5.4l7.7,11h0.7L83.7,3.7z M99.3,10c0-3.9-2.4-6.5-5.6-6.5
	s-5.6,2.6-5.6,6.5s2.4,6.5,5.6,6.5S99.3,13.9,99.3,10 M98.3,10c0,3.2-1.8,5.5-4.5,5.5s-4.5-2.3-4.5-5.5s1.8-5.5,4.5-5.5
	S98.2,6.8,98.3,10 M102.7,13.2c0.5,2.1,2.3,3.3,4.7,3.3s4.2-1.3,4.2-3.5c0-1.7-0.9-2.7-3-3.3l-2.1-0.6c-1.5-0.4-2.4-0.9-2.4-2.2
	c0-1.5,1.3-2.4,3-2.4c1.5-0.1,2.9,0.8,3.4,2.2h1c-0.5-2-2.4-3.3-4.4-3.2c-2.2,0-4,1.3-4,3.4c0,1.8,1.1,2.6,2.9,3.1l2.4,0.7
	c1.6,0.4,2.2,1.2,2.2,2.3c0,1.6-1.3,2.5-3.1,2.5c-1.6,0.1-3.1-0.8-3.6-2.3L102.7,13.2z"/>
<polygon class="st0" points="7.8,11 9.9,5.9 8.9,5.9 7.4,9.9 5.8,5.9 4.9,5.9 6.9,11 "/>
<rect x="4.4" y="13.6" class="st0" width="5.9" height="0.6"/>
<path class="st0" d="M7.4,0.8c-3.3-0.1-6,2.4-6.1,5.7v7.1c0.1,3.3,2.9,5.8,6.1,5.7c3.2,0.1,6-2.4,6.1-5.7V6.5
	C13.4,3.2,10.6,0.7,7.4,0.8 M7.4,20c-3.7,0.1-6.8-2.8-6.9-6.5V6.5C0.6,2.8,3.7-0.1,7.4,0c3.7-0.1,6.8,2.8,6.9,6.5v7.1
	C14.1,17.2,11.1,20.1,7.4,20"/>
</svg>
